<?xml version="1.0" encoding="UTF-8"?>
<svg xmlns="http://www.w3.org/2000/svg" width="2100" height="2100" viewBox="0 0 2100 2100">
    <path fill="black" d="M 1050.058594 731 C 1041.460938 729.238281 1032.789062 733.691406 1029.199219 741.699219 L 942.625 934.929688 L 732.941406 964.339844 C 725.730469 965.351562 719.757812 970.441406 717.621094 977.410156 C 715.484375 984.359375 717.570312 991.929688 722.96875 996.820312 L 879.984375 1138.863281 L 843.164062 1347.371094 C 841.902344 1354.539062 844.898438 1361.792969 850.855469 1365.972656 C 856.8125 1370.15625 864.652344 1370.511719 870.964844 1366.890625 L 1054.578125 1261.453125 L 1241.511719 1360.90625 C 1247.941406 1364.324219 1255.761719 1363.714844 1261.578125 1359.339844 C 1267.398438 1354.964844 1270.160156 1347.617188 1268.660156 1340.496094 L 1225.128906 1133.285156 L 1377.46875 986.238281 C 1382.710938 981.179688 1384.550781 973.558594 1382.179688 966.671875 C 1379.820312 959.78125 1373.691406 954.890625 1366.460938 954.109375 L 1155.929688 931.480469 L 1063.160156 741.148438 C 1060.609375 735.910156 1055.769531 732.160156 1050.058594 731 Z M 1047.019531 793.621094 L 1126.769531 957.230469 C 1129.589844 963.03125 1135.199219 966.96875 1141.621094 967.660156 L 1322.578125 987.109375 L 1191.628906 1113.503906 C 1186.980469 1117.984375 1184.96875 1124.539062 1186.300781 1130.851562 L 1223.71875 1308.96875 L 1063.050781 1223.480469 C 1057.351562 1220.449219 1050.5 1220.554688 1044.898438 1223.769531 L 887.070312 1314.402344 L 918.71875 1135.175781 C 919.839844 1128.820312 917.617188 1122.339844 912.832031 1118.007812 L 777.859375 995.910156 L 958.101562 970.621094 C 964.492188 969.730469 969.972656 965.609375 972.609375 959.71875 Z"/>
</svg>
